<svg width="68" height="68" viewBox="0 0 68 68" fill="none" xmlns="http://www.w3.org/2000/svg">
<g filter="url(#filter0_d)">
<g opacity="0.8" filter="url(#filter1_b)">
<path d="M17.5017 18.4983L26.4984 9.50165C28.4879 7.51209 31.1863 6.39437 34 6.39437C36.8137 6.39437 39.5121 7.51209 41.5017 9.50165L50.3535 18.3535C52.3316 20.3316 53.4661 22.9991 53.5189 25.796C53.5743 28.7342 52.4315 31.5685 50.3535 33.6465L41.6465 42.3535C39.5685 44.4315 36.7342 45.5743 33.796 45.5189C30.9991 45.4661 28.3316 44.3316 26.3535 42.3535L17.5017 33.5017C15.5121 31.5121 14.3944 28.8137 14.3944 26C14.3944 23.1863 15.5121 20.4879 17.5017 18.4983Z" fill="#FED305"/>
</g>
<path d="M28.3125 13.9804L21.9509 20.342L21.9292 20.3636C21.5174 20.7755 21.2851 21.0077 21.0822 21.255C20.2671 22.2485 19.7647 23.4613 19.6386 24.7402C19.6072 25.0585 19.6072 25.387 19.6072 25.9694L19.6072 26L19.6072 26.0306C19.6072 26.613 19.6072 26.9415 19.6386 27.2598C19.7647 28.5387 20.2671 29.7515 21.0822 30.745C21.2851 30.9923 21.5174 31.2245 21.9292 31.6363L21.9509 31.658L28.2101 37.9172L28.2332 37.9404C28.6731 38.3803 28.9213 38.6285 29.1874 38.8438C30.1303 39.6066 31.2679 40.0905 32.4715 40.2405C32.8112 40.2829 33.1621 40.2895 33.7841 40.3012L33.8168 40.3018L33.8513 40.3025C34.5063 40.3149 34.8757 40.3218 35.2334 40.289C36.5015 40.1727 37.7075 39.6864 38.7017 38.8906C38.9821 38.6661 39.2433 38.4049 39.7066 37.9416L39.7309 37.9172L45.8877 31.7604L45.9121 31.736C46.3754 31.2728 46.6366 31.0116 46.8611 30.7312C47.6569 29.737 48.1432 28.531 48.2595 27.2629C48.2923 26.9052 48.2854 26.5358 48.273 25.8808L48.2723 25.8463L48.2717 25.8137C48.26 25.1916 48.2534 24.8407 48.211 24.501C48.061 23.2974 47.5772 22.1598 46.8143 21.2169C46.599 20.9508 46.3508 20.7026 45.9109 20.2627L45.8877 20.2396L39.6285 13.9804L39.6069 13.9587C39.1951 13.5469 38.9628 13.3146 38.7155 13.1117C37.722 12.2966 36.5092 11.7942 35.2303 11.6681C34.912 11.6367 34.5835 11.6367 34.0011 11.6367L33.9705 11.6367L33.94 11.6367C33.3575 11.6367 33.029 11.6367 32.7107 11.6681C31.4318 11.7942 30.219 12.2966 29.2255 13.1117C28.9782 13.3146 28.746 13.5469 28.3342 13.9587L28.3125 13.9804Z" stroke="white"/>
<path d="M33.9705 12.3867L33.9706 12.3867C33.9708 12.3867 33.9711 12.3867 33.9714 12.3867C34.5871 12.3867 34.8783 12.387 35.1567 12.4145C36.2881 12.526 37.3609 12.9704 38.2398 13.6915C38.4562 13.8691 38.6624 14.0749 39.0982 14.5107L45.3574 20.7699C45.8229 21.2354 46.0428 21.4557 46.2312 21.6886C46.906 22.5228 47.334 23.5291 47.4668 24.5938C47.5039 24.8911 47.5101 25.2022 47.5225 25.8605C47.5355 26.5536 47.5414 26.8813 47.5127 27.1944C47.4097 28.3162 46.9796 29.383 46.2756 30.2625C46.0791 30.5079 45.8476 30.7399 45.3574 31.2301L39.2006 37.3869C38.7104 37.8771 38.4784 38.1086 38.233 38.3051C37.3535 39.0091 36.2867 39.4392 35.1649 39.5422C34.8518 39.5709 34.5241 39.565 33.831 39.552C33.1727 39.5396 32.8616 39.5334 32.5643 39.4963C31.4996 39.3635 30.4933 38.9355 29.6591 38.2607C29.4262 38.0723 29.2059 37.8524 28.7404 37.3869L22.4812 31.1277C22.0454 30.6919 21.8396 30.4857 21.662 30.2693C20.9409 29.3904 20.4965 28.3176 20.385 27.1862C20.3575 26.9076 20.3572 26.6163 20.3572 26C20.3572 25.3837 20.3575 25.0924 20.385 24.8138C20.4965 23.6824 20.9409 22.6096 21.662 21.7307C21.8396 21.5143 22.0454 21.3081 22.4812 20.8723L28.8428 14.5107C29.2786 14.0749 29.4848 13.8691 29.7012 13.6915C30.5801 12.9704 31.6529 12.526 32.7843 12.4145C33.0629 12.387 33.3542 12.3867 33.9705 12.3867Z" stroke="#E2BC05" stroke-width="0.5"/>
<path fill-rule="evenodd" clip-rule="evenodd" d="M35.9905 21H32V20.248L34.3103 17.0938H32.0096V16H36V16.752L33.6897 19.9063H35.9905V21ZM37 29H41.9881V27.6875H39.1122L42 23.9023V23H37.0119V24.3125H39.8878L37 28.0977V29ZM28 35H35.9951V33.0371H31.0895L36 26.377V25H28.0049V26.9629H32.9105L28 33.623V35Z" fill="white"/>
</g>
<defs>
<filter id="filter0_d" x="-4" y="-4" width="76" height="76" filterUnits="userSpaceOnUse" color-interpolation-filters="sRGB">
<feFlood flood-opacity="0" result="BackgroundImageFix"/>
<feColorMatrix in="SourceAlpha" type="matrix" values="0 0 0 0 0 0 0 0 0 0 0 0 0 0 0 0 0 0 127 0" result="hardAlpha"/>
<feOffset dy="8"/>
<feGaussianBlur stdDeviation="7"/>
<feColorMatrix type="matrix" values="0 0 0 0 0.5 0 0 0 0 0.36 0 0 0 0 0 0 0 0 0.25 0"/>
<feBlend mode="normal" in2="BackgroundImageFix" result="effect1_dropShadow"/>
<feBlend mode="normal" in="SourceGraphic" in2="effect1_dropShadow" result="shape"/>
</filter>
<filter id="filter1_b" x="-9.60565" y="-17.6056" width="87.1264" height="87.1264" filterUnits="userSpaceOnUse" color-interpolation-filters="sRGB">
<feFlood flood-opacity="0" result="BackgroundImageFix"/>
<feGaussianBlur in="BackgroundImage" stdDeviation="12"/>
<feComposite in2="SourceAlpha" operator="in" result="effect1_backgroundBlur"/>
<feBlend mode="normal" in="SourceGraphic" in2="effect1_backgroundBlur" result="shape"/>
</filter>
</defs>
</svg>
